<svg width="512" height="512" viewBox="0 0 512 512" fill="none" xmlns="http://www.w3.org/2000/svg">
<path d="M464 288H48C30.3269 288 16 302.327 16 320V464C16 481.673 30.3269 496 48 496H464C481.673 496 496 481.673 496 464V320C496 302.327 481.673 288 464 288Z" fill="#4D8C28"/>
<path d="M48 288C39.5131 288 31.3737 291.371 25.3726 297.373C19.3714 303.374 16 311.513 16 320V464C16.0173 466.404 16.3072 468.798 16.864 471.136C19.2024 471.693 21.5963 471.983 24 472H440C448.487 472 456.626 468.629 462.627 462.627C468.629 456.626 472 448.487 472 440V296C471.983 293.596 471.693 291.202 471.136 288.864C468.798 288.307 466.404 288.017 464 288H48Z" fill="#559B2D"/>
<path d="M408 168C408.017 152.596 402.443 137.709 392.312 126.104C386.134 118.469 382.478 109.105 381.848 99.304C380.389 84.6426 373.898 70.9386 363.48 60.5202C353.061 50.1018 339.357 43.6115 324.696 42.152C314.895 41.5222 305.531 37.866 297.896 31.688C286.283 21.5716 271.402 15.9989 256 15.9989C240.599 15.9989 225.717 21.5716 214.104 31.688C206.469 37.866 197.105 41.5222 187.304 42.152C172.643 43.6115 158.939 50.1018 148.52 60.5202C138.102 70.9386 131.612 84.6426 130.152 99.304C129.522 109.105 125.866 118.469 119.688 126.104C109.572 137.717 103.999 152.598 103.999 168C103.999 183.401 109.572 198.283 119.688 209.896C125.866 217.531 129.522 226.895 130.152 236.696C131.612 251.357 138.102 265.061 148.52 275.48C158.939 285.898 172.643 292.388 187.304 293.848C197.105 294.478 206.469 298.134 214.104 304.312C225.717 314.428 240.599 320.001 256 320.001C271.402 320.001 286.283 314.428 297.896 304.312C305.531 298.134 314.895 294.478 324.696 293.848C339.357 292.388 353.061 285.898 363.48 275.48C373.898 265.061 380.389 251.357 381.848 236.696C382.478 226.895 386.134 217.531 392.312 209.896C402.443 198.291 408.017 183.404 408 168V168Z" fill="#6BC13B"/>
<path d="M256 272C313.438 272 360 225.438 360 168C360 110.562 313.438 64 256 64C198.562 64 152 110.562 152 168C152 225.438 198.562 272 256 272Z" fill="#F2F2F2"/>
<path d="M184 184L232 232L328 136L304 112L232 184L208 160L184 184Z" fill="#7BDF45"/>
<path d="M67.84 358.4C67.4712 356.593 66.4893 354.969 65.0606 353.803C63.632 352.636 61.8442 352 60 352H44C42.1558 352 40.368 352.636 38.9394 353.803C37.5107 354.969 36.5289 356.593 36.16 358.4L28.16 398.4C28.0531 398.927 27.9995 399.463 28 400V432H44V408H60V432H76V400C76.0005 399.463 75.9469 398.927 75.84 398.4L67.84 358.4ZM53.448 368L58.248 392H45.76L50.56 368H53.448Z" fill="#F2F2F2"/>
<path d="M67.84 358.4C67.4712 356.593 66.4893 354.969 65.0606 353.803C63.632 352.636 61.8442 352 60 352H44C42.1558 352 40.368 352.636 38.9394 353.803C37.5107 354.969 36.5289 356.593 36.16 358.4L28.16 398.4C28.0531 398.927 27.9995 399.463 28 400V432H44V408H60V432H76V400C76.0005 399.463 75.9469 398.927 75.84 398.4L67.84 358.4ZM53.448 368L58.248 392H45.76L50.56 368H53.448Z" fill="#F2F2F2"/>
<path d="M108 352H92C89.8783 352 87.8434 352.843 86.3431 354.343C84.8429 355.843 84 357.878 84 360V432H100V400H108C114.365 400 120.47 397.471 124.971 392.971C129.471 388.47 132 382.365 132 376C132 369.635 129.471 363.53 124.971 359.029C120.47 354.529 114.365 352 108 352ZM108 384H100V368H108C110.122 368 112.157 368.843 113.657 370.343C115.157 371.843 116 373.878 116 376C116 378.122 115.157 380.157 113.657 381.657C112.157 383.157 110.122 384 108 384Z" fill="#F2F2F2"/>
<path d="M188 376C188 369.635 185.471 363.53 180.971 359.029C176.47 354.529 170.365 352 164 352H148C145.878 352 143.843 352.843 142.343 354.343C140.843 355.843 140 357.878 140 360V432H156V400H160.464C167.859 408.494 171.953 419.363 172 430.624V432H188V430.624C187.966 418.255 184.294 406.169 177.44 395.872C180.69 393.675 183.352 390.715 185.193 387.25C187.034 383.786 187.998 379.923 188 376V376ZM156 368H164C166.122 368 168.157 368.843 169.657 370.343C171.157 371.843 172 373.878 172 376C172 378.122 171.157 380.157 169.657 381.657C168.157 383.157 166.122 384 164 384H156V368Z" fill="#F2F2F2"/>
<path d="M284 391.016L277.752 416H274.248L268 391.016V352H252V392C251.999 392.653 252.08 393.303 252.24 393.936L260.24 425.936C260.672 427.667 261.67 429.205 263.076 430.304C264.482 431.402 266.216 432 268 432H284C285.785 432 287.518 431.402 288.924 430.304C290.33 429.205 291.328 427.667 291.76 425.936L299.76 393.936C299.92 393.303 300.001 392.653 300 392V352H284V391.016Z" fill="#F2F2F2"/>
<path d="M220 352C213.635 352 207.53 354.529 203.029 359.029C198.529 363.53 196 369.635 196 376V408C196 414.365 198.529 420.47 203.029 424.971C207.53 429.471 213.635 432 220 432C226.365 432 232.47 429.471 236.971 424.971C241.471 420.47 244 414.365 244 408V376C244 369.635 241.471 363.53 236.971 359.029C232.47 354.529 226.365 352 220 352ZM228 408C228 410.122 227.157 412.157 225.657 413.657C224.157 415.157 222.122 416 220 416C217.878 416 215.843 415.157 214.343 413.657C212.843 412.157 212 410.122 212 408V376C212 373.878 212.843 371.843 214.343 370.343C215.843 368.843 217.878 368 220 368C222.122 368 224.157 368.843 225.657 370.343C227.157 371.843 228 373.878 228 376V408Z" fill="#F2F2F2"/>
<path d="M448 352C441.635 352 435.53 354.529 431.029 359.029C426.529 363.53 424 369.635 424 376V408C424 414.365 426.529 420.47 431.029 424.971C435.53 429.471 441.635 432 448 432C454.365 432 460.47 429.471 464.971 424.971C469.471 420.47 472 414.365 472 408V376C472 369.635 469.471 363.53 464.971 359.029C460.47 354.529 454.365 352 448 352ZM456 408C456 410.122 455.157 412.157 453.657 413.657C452.157 415.157 450.122 416 448 416C445.878 416 443.843 415.157 442.343 413.657C440.843 412.157 440 410.122 440 408V376C440 373.878 440.843 371.843 442.343 370.343C443.843 368.843 445.878 368 448 368C450.122 368 452.157 368.843 453.657 370.343C455.157 371.843 456 373.878 456 376V408Z" fill="#F2F2F2"/>
<path d="M392 352H376C373.878 352 371.843 352.843 370.343 354.343C368.843 355.843 368 357.878 368 360V424C368 426.122 368.843 428.157 370.343 429.657C371.843 431.157 373.878 432 376 432H392C398.365 432 404.47 429.471 408.971 424.971C413.471 420.47 416 414.365 416 408V376C416 369.635 413.471 363.53 408.971 359.029C404.47 354.529 398.365 352 392 352V352ZM400 408C400 410.122 399.157 412.157 397.657 413.657C396.157 415.157 394.122 416 392 416H384V368H392C394.122 368 396.157 368.843 397.657 370.343C399.157 371.843 400 373.878 400 376V408Z" fill="#F2F2F2"/>
<path d="M351.84 358.4C351.471 356.593 350.489 354.969 349.061 353.803C347.632 352.636 345.844 352 344 352H328C326.156 352 324.368 352.636 322.939 353.803C321.511 354.969 320.529 356.593 320.16 358.4L312.16 398.4C312.053 398.927 311.999 399.463 312 400V432H328V408H344V432H360V400C360.001 399.463 359.947 398.927 359.84 398.4L351.84 358.4ZM337.448 368L342.248 392H329.76L334.56 368H337.448Z" fill="#F2F2F2"/>
</svg>
