<svg width="512" height="512" viewBox="0 0 512 512" fill="none" xmlns="http://www.w3.org/2000/svg">
<path d="M464 288H48C30.3269 288 16 302.327 16 320V464C16 481.673 30.3269 496 48 496H464C481.673 496 496 481.673 496 464V320C496 302.327 481.673 288 464 288Z" fill="#8C2828"/>
<path d="M48 288C39.5131 288 31.3737 291.371 25.3726 297.373C19.3714 303.374 16 311.513 16 320V464C16.0173 466.404 16.3072 468.798 16.864 471.136C19.2024 471.693 21.5963 471.983 24 472H440C448.487 472 456.626 468.629 462.627 462.627C468.629 456.626 472 448.487 472 440V296C471.983 293.596 471.693 291.202 471.136 288.864C468.798 288.307 466.404 288.017 464 288H48Z" fill="#9B2D2D"/>
<path d="M408 168C408.017 152.596 402.443 137.709 392.312 126.104C386.134 118.469 382.478 109.105 381.848 99.304C380.389 84.6426 373.898 70.9386 363.48 60.5202C353.061 50.1018 339.357 43.6115 324.696 42.152C314.895 41.5222 305.531 37.866 297.896 31.688C286.283 21.5716 271.402 15.9989 256 15.9989C240.599 15.9989 225.717 21.5716 214.104 31.688C206.469 37.866 197.105 41.5222 187.304 42.152C172.643 43.6115 158.939 50.1018 148.52 60.5202C138.102 70.9386 131.612 84.6426 130.152 99.304C129.522 109.105 125.866 118.469 119.688 126.104C109.572 137.717 103.999 152.598 103.999 168C103.999 183.401 109.572 198.283 119.688 209.896C125.866 217.531 129.522 226.895 130.152 236.696C131.612 251.357 138.102 265.061 148.52 275.48C158.939 285.898 172.643 292.388 187.304 293.848C197.105 294.478 206.469 298.134 214.104 304.312C225.717 314.428 240.599 320.001 256 320.001C271.402 320.001 286.283 314.428 297.896 304.312C305.531 298.134 314.895 294.478 324.696 293.848C339.357 292.388 353.061 285.898 363.48 275.48C373.898 265.061 380.389 251.357 381.848 236.696C382.478 226.895 386.134 217.531 392.312 209.896C402.443 198.291 408.017 183.404 408 168V168Z" fill="#C13B3B"/>
<path d="M256 272C313.438 272 360 225.438 360 168C360 110.562 313.438 64 256 64C198.562 64 152 110.562 152 168C152 225.438 198.562 272 256 272Z" fill="#F2F2F2"/>
<path d="M362.73 364.9C362.39 363.234 361.485 361.737 360.168 360.662C358.851 359.587 357.202 359 355.502 359H340.751C339.051 359 337.403 359.587 336.085 360.662C334.768 361.737 333.863 363.234 333.523 364.9L326.148 401.778C326.049 402.263 326 402.758 326 403.253V432.755H340.751V410.629H355.502V432.755H370.253V403.253C370.254 402.758 370.204 402.263 370.106 401.778L362.73 364.9ZM349.462 373.751L353.887 395.878H342.374L346.799 373.751H349.462Z" fill="#F2F2F2"/>
<path d="M140.127 359H125.376C123.419 359 121.543 359.777 120.16 361.16C118.777 362.543 118 364.419 118 366.376V432.755H132.751V403.253H140.127C145.995 403.253 151.623 400.922 155.772 396.772C159.922 392.623 162.253 386.995 162.253 381.127C162.253 375.258 159.922 369.63 155.772 365.481C151.623 361.331 145.995 359 140.127 359V359ZM140.127 388.502H132.751V373.751H140.127C142.083 373.751 143.959 374.528 145.342 375.911C146.725 377.294 147.502 379.17 147.502 381.127C147.502 383.083 146.725 384.959 145.342 386.342C143.959 387.725 142.083 388.502 140.127 388.502Z" fill="#F2F2F2"/>
<path d="M69.2531 381.141C69.2531 375.272 66.9219 369.644 62.7724 365.495C58.6228 361.345 52.9949 359.014 47.1265 359.014H32.3755C30.4194 359.014 28.5434 359.791 27.1602 361.174C25.7771 362.558 25 364.434 25 366.39V432.769H39.751V403.267H43.8666C50.684 411.098 54.4587 421.118 54.502 431.501V432.769H69.2531V431.501C69.2218 420.097 65.836 408.955 59.5174 399.461C62.514 397.436 64.9683 394.707 66.6656 391.513C68.3629 388.319 69.2513 384.758 69.2531 381.141V381.141ZM39.751 373.765H47.1265C49.0826 373.765 50.9586 374.542 52.3418 375.925C53.725 377.309 54.502 379.185 54.502 381.141C54.502 383.097 53.725 384.973 52.3418 386.356C50.9586 387.739 49.0826 388.516 47.1265 388.516H39.751V373.765Z" fill="#F2F2F2"/>
<path d="M214.253 381.127C214.253 375.258 211.922 369.63 207.772 365.481C203.623 361.331 197.995 359 192.127 359H177.376C175.419 359 173.543 359.777 172.16 361.16C170.777 362.543 170 364.419 170 366.376V432.755H184.751V403.253H188.867C195.684 411.084 199.459 421.104 199.502 431.487V432.755H214.253V431.487C214.222 420.083 210.836 408.94 204.517 399.447C207.514 397.422 209.968 394.693 211.666 391.499C213.363 388.305 214.251 384.743 214.253 381.127V381.127ZM184.751 373.751H192.127C194.083 373.751 195.959 374.528 197.342 375.911C198.725 377.294 199.502 379.17 199.502 381.127C199.502 383.083 198.725 384.959 197.342 386.342C195.959 387.725 194.083 388.502 192.127 388.502H184.751V373.751Z" fill="#F2F2F2"/>
<path d="M303.502 394.97L297.742 418.004H294.511L288.751 394.97V359H274V395.878C273.999 396.479 274.074 397.079 274.221 397.662L281.597 427.164C281.995 428.761 282.915 430.178 284.212 431.191C285.508 432.204 287.106 432.755 288.751 432.755H303.502C305.147 432.755 306.745 432.204 308.041 431.191C309.338 430.178 310.258 428.761 310.656 427.164L318.032 397.662C318.179 397.079 318.254 396.479 318.253 395.878V359H303.502V394.97Z" fill="#F2F2F2"/>
<path d="M244.127 359C238.258 359 232.63 361.331 228.481 365.481C224.331 369.63 222 375.258 222 381.127V410.629C222 416.497 224.331 422.125 228.481 426.274C232.63 430.424 238.258 432.755 244.127 432.755C249.995 432.755 255.623 430.424 259.772 426.274C263.922 422.125 266.253 416.497 266.253 410.629V381.127C266.253 375.258 263.922 369.63 259.772 365.481C255.623 361.331 249.995 359 244.127 359ZM251.502 410.629C251.502 412.585 250.725 414.461 249.342 415.844C247.959 417.227 246.083 418.004 244.127 418.004C242.17 418.004 240.294 417.227 238.911 415.844C237.528 414.461 236.751 412.585 236.751 410.629V381.127C236.751 379.17 237.528 377.294 238.911 375.911C240.294 374.528 242.17 373.751 244.127 373.751C246.083 373.751 247.959 374.528 249.342 375.911C250.725 377.294 251.502 379.17 251.502 381.127V410.629Z" fill="#F2F2F2"/>
<path d="M452.127 359C446.258 359 440.63 361.331 436.481 365.481C432.331 369.63 430 375.258 430 381.127V410.629C430 416.497 432.331 422.125 436.481 426.274C440.63 430.424 446.258 432.755 452.127 432.755C457.995 432.755 463.623 430.424 467.772 426.274C471.922 422.125 474.253 416.497 474.253 410.629V381.127C474.253 375.258 471.922 369.63 467.772 365.481C463.623 361.331 457.995 359 452.127 359ZM459.502 410.629C459.502 412.585 458.725 414.461 457.342 415.844C455.959 417.227 454.083 418.004 452.127 418.004C450.17 418.004 448.294 417.227 446.911 415.844C445.528 414.461 444.751 412.585 444.751 410.629V381.127C444.751 379.17 445.528 377.294 446.911 375.911C448.294 374.528 450.17 373.751 452.127 373.751C454.083 373.751 455.959 374.528 457.342 375.911C458.725 377.294 459.502 379.17 459.502 381.127V410.629Z" fill="#F2F2F2"/>
<path d="M77 366.399V425.587C77 427.549 77.6995 429.431 78.9447 430.819C80.1899 432.206 81.8788 432.986 83.6398 432.986H110.199V418.189H90.2795V403.391H110.199V388.594H90.2795V373.797H110.199V359H83.6398C81.8788 359 80.1899 359.779 78.9447 361.167C77.6995 362.554 77 364.436 77 366.399Z" fill="#F2F2F2"/>
<path d="M400.127 359H385.376C383.419 359 381.543 359.777 380.16 361.16C378.777 362.543 378 364.419 378 366.376V425.38C378 427.336 378.777 429.212 380.16 430.595C381.543 431.978 383.419 432.755 385.376 432.755H400.127C405.995 432.755 411.623 430.424 415.772 426.274C419.922 422.125 422.253 416.497 422.253 410.629V381.127C422.253 375.258 419.922 369.63 415.772 365.481C411.623 361.331 405.995 359 400.127 359V359ZM407.502 410.629C407.502 412.585 406.725 414.461 405.342 415.844C403.959 417.227 402.083 418.004 400.127 418.004H392.751V373.751H400.127C402.083 373.751 403.959 374.528 405.342 375.911C406.725 377.294 407.502 379.17 407.502 381.127V410.629Z" fill="#F2F2F2"/>
<rect x="189" y="214.135" width="159.998" height="29.512" transform="rotate(-45 189 214.135)" fill="#FF2E2E"/>
<rect x="209.868" y="101" width="159.998" height="29.512" transform="rotate(45 209.868 101)" fill="#FF2E2E"/>
</svg>
